<svg width="48" height="48" viewBox="0 0 48 48" fill="none" xmlns="http://www.w3.org/2000/svg">
<path d="M8.00008 32H40.0001V10H8.00008V32ZM26.0001 36V40H34.0001V44H14.0001V40H22.0001V36H5.98408C5.72145 35.9984 5.46172 35.945 5.21976 35.8429C4.9778 35.7408 4.75838 35.5919 4.57406 35.4048C4.38975 35.2177 4.24418 34.9961 4.14568 34.7526C4.04719 34.5091 3.99771 34.2486 4.00008 33.986V8.014C4.00008 6.902 4.91008 6 5.98408 6H42.0161C43.1121 6 44.0001 6.898 44.0001 8.014V33.986C44.0001 35.098 43.0901 36 42.0161 36H26.0001Z" fill="white"/>
</svg>
