<?xml version="1.0" encoding="UTF-8"?>
<svg width="258px" height="258px" viewBox="0 0 258 258" version="1.1" xmlns="http://www.w3.org/2000/svg" xmlns:xlink="http://www.w3.org/1999/xlink">
    <!-- Generator: Sketch 63.1 (92452) - https://sketch.com -->
    <title>one.com.inner.dot</title>
    <desc>Created with Sketch.</desc>
    <g id="Page-1" stroke="none" stroke-width="1" fill="none" fill-rule="evenodd">
        <g id="one.com.inner.dot">
            <path d="M128.9999,0 C200.2449,0 257.9999,57.755 257.9999,129 C257.9999,200.245 200.2449,258 128.9999,258 C57.7549,258 -0.0001,200.245 -0.0001,129 C-0.0001,57.755 57.7549,0 128.9999,0" id="big-dot" fill="#76B82A"></path>
            <path d="M218.1473,116.5967 C214.9063,116.5967 211.9963,118.0177 210.0073,120.2707 C208.0193,118.0177 205.1093,116.5967 201.8683,116.5967 C195.8753,116.5967 191.0153,121.4557 191.0153,127.4497 L191.0153,128.2247 L191.0153,141.4037 L196.4423,141.4037 L196.4423,127.4497 L196.4453,127.2637 C196.5433,124.3527 198.9333,122.0237 201.8683,122.0237 C204.8653,122.0237 207.2943,124.4527 207.2943,127.4497 L207.2943,141.4037 L212.7203,141.4037 L212.7203,127.4497 L212.7243,127.2637 C212.8223,124.3527 215.2123,122.0237 218.1473,122.0237 C221.1443,122.0237 223.5743,124.4527 223.5743,127.4497 L223.5743,141.4037 L229.0003,141.4037 L229.0003,127.4497 C229.0003,121.4557 224.1413,116.5967 218.1473,116.5967" id="M" fill="#FFFFFF"></path>
            <path d="M173.1864,135.9765 C169.3324,135.9765 166.2084,132.8525 166.2084,128.9995 C166.2084,125.1465 169.3324,122.0235 173.1864,122.0235 C177.0394,122.0235 180.1634,125.1465 180.1634,128.9995 C180.1634,132.8525 177.0394,135.9765 173.1864,135.9765 M173.1864,116.5965 C166.3354,116.5965 160.7834,122.1495 160.7834,128.9995 C160.7834,135.8505 166.3354,141.4035 173.1864,141.4035 C180.0364,141.4035 185.5884,135.8505 185.5884,128.9995 C185.5884,122.1495 180.0364,116.5965 173.1864,116.5965" id="O" fill="#FFFFFF"></path>
            <path d="M146.8397,122.0234 C148.8317,122.0234 150.6247,122.8624 151.8967,124.2014 L155.7337,120.3644 C153.4797,118.0444 150.3307,116.5964 146.8397,116.5964 C139.9897,116.5964 134.4367,122.1494 134.4367,129.0004 C134.4367,135.8504 139.9897,141.4034 146.8397,141.4034 C150.3307,141.4034 153.4797,139.9564 155.7337,137.6354 L151.8967,133.7984 C150.6247,135.1374 148.8317,135.9764 146.8397,135.9764 C142.9867,135.9764 139.8627,132.8534 139.8627,129.0004 C139.8627,125.1474 142.9867,122.0234 146.8397,122.0234" id="C" fill="#FFFFFF"></path>
            <path d="M124.349,132.1006 C126.917,132.1006 129,134.1836 129,136.7516 C129,139.3206 126.917,141.4036 124.349,141.4036 C121.78,141.4036 119.698,139.3206 119.698,136.7516 C119.698,134.1836 121.78,132.1006 124.349,132.1006" id="dot" fill="#3C3C3C"></path>
            <path d="M95.2885,126.6748 C96.2465,123.9648 98.8305,122.0238 101.8685,122.0238 C104.9065,122.0238 107.4905,123.9648 108.4485,126.6748 L95.2885,126.6748 Z M114.2715,128.9998 C114.2715,122.1498 108.7185,116.5968 101.8685,116.5968 C95.0175,116.5968 89.4655,122.1498 89.4655,128.9998 C89.4655,135.8498 95.0175,141.4038 101.8685,141.4038 C106.9245,141.4038 111.2735,138.3778 113.2055,134.0388 L106.6935,134.0388 C105.4405,135.2388 103.7405,135.9768 101.8685,135.9768 C98.6875,135.9768 96.0045,133.8488 95.1645,130.9388 L114.1205,130.9388 C114.2195,130.3068 114.2715,129.6598 114.2715,128.9998 L114.2715,128.9998 Z" id="E" fill="#FFFFFF"></path>
            <path d="M71.6356,116.5967 C64.7856,116.5967 59.2326,122.1497 59.2326,128.9997 L59.2326,141.4037 L64.6586,141.4037 L64.6586,139.2567 C64.6586,139.2567 64.6586,139.2567 64.6596,139.2567 L64.6586,128.9997 L64.6616,128.7947 C64.7706,125.0357 67.8516,122.0237 71.6356,122.0237 C75.4886,122.0237 78.6126,125.1467 78.6126,128.9997 L78.6126,139.2557 L78.6136,139.2557 L78.6126,141.4037 L84.0386,141.4037 L84.0386,128.9997 L84.0366,128.7557 C83.9066,122.0187 78.4046,116.5967 71.6356,116.5967" id="N" fill="#FFFFFF"></path>
            <path d="M41.4032,135.9765 C37.5502,135.9765 34.4262,132.8525 34.4262,128.9995 C34.4262,125.1465 37.5502,122.0235 41.4032,122.0235 C45.2562,122.0235 48.3802,125.1465 48.3802,128.9995 C48.3802,132.8525 45.2562,135.9765 41.4032,135.9765 M41.4032,116.5965 C34.5532,116.5965 29.0002,122.1495 29.0002,128.9995 C29.0002,135.8505 34.5532,141.4035 41.4032,141.4035 C48.2532,141.4035 53.8062,135.8505 53.8062,128.9995 C53.8062,122.1495 48.2532,116.5965 41.4032,116.5965" id="O" fill="#FFFFFF"></path>
        </g>
    </g>
</svg>