<svg width="48" height="48" viewBox="0 0 48 48" fill="none" xmlns="http://www.w3.org/2000/svg">
<path fill-rule="evenodd" clip-rule="evenodd" d="M15 40V8H33V40H15ZM35 4H13C12.4696 4 11.9609 4.21071 11.5858 4.58579C11.2107 4.96086 11 5.46957 11 6V42C11 42.5304 11.2107 43.0391 11.5858 43.4142C11.9609 43.7893 12.4696 44 13 44H35C35.5304 44 36.0391 43.7893 36.4142 43.4142C36.7893 43.0391 37 42.5304 37 42V6C37 5.46957 36.7893 4.96086 36.4142 4.58579C36.0391 4.21071 35.5304 4 35 4ZM24 31C22.6193 31 21.5 32.1193 21.5 33.5C21.5 34.8807 22.6193 36 24 36C25.3807 36 26.5 34.8807 26.5 33.5C26.5 32.1193 25.3807 31 24 31Z" fill="white"/>
</svg>
